<svg id="SvgjsSvg1001" width="288" height="288" xmlns="http://www.w3.org/2000/svg" version="1.1" xmlns:xlink="http://www.w3.org/1999/xlink" xmlns:svgjs="http://svgjs.com/svgjs"><circle id="SvgjsCircle1043" r="144" cx="144" cy="144" transform="matrix(0.93,0,0,0.93,10.079999999999984,10.079999999999984)" fill="#f8fafc"></circle><defs id="SvgjsDefs1002"></defs><g id="SvgjsG1008" transform="matrix(0.93,0,0,0.93,10.079999874830236,10.080787200927716)"><svg xmlns="http://www.w3.org/2000/svg" viewBox="0 0 512 512" width="288" height="288"><path fill="#f8fafc" d="M256,3.5C116.55,3.5,3.5,116.55,3.5,256A251.35,251.35,0,0,0,52.56,405.59c46,62.41,120,95.91,203.44,95.91S413.47,468,459.44,405.59A251.35,251.35,0,0,0,508.5,256C508.5,116.55,395.45,3.5,256,3.5Z" class="svgShape colorf4da92-0 selectable"></path><path fill="#667eea" d="M259.51,475.26a5.54,5.54,0,1,0,5.54,5.54A5.54,5.54,0,0,0,259.51,475.26Z" class="svgShape colore6e7e8-1 selectable"></path><path fill="#fba56c" d="M331.32,433.32V326.9c-2.86-1.53-5.57-3.06-8.07-4.54-2.68-1.57-5.14-3.08-7.31-4.45a23.16,23.16,0,0,1-10.74-19.54v-36.3H206.8v36.3a23.16,23.16,0,0,1-10.74,19.54c-2.17,1.37-4.63,2.88-7.31,4.45-2,1.19-4.2,2.43-6.47,3.67V433.32Z" class="svgShape colorfba56c-2 selectable"></path><path fill="#346576" d="M463.24,400.27A252.22,252.22,0,0,1,274.68,507.81q-9.26.69-18.68.69-5.12,0-10.19-.21a252.17,252.17,0,0,1-197-108c11.24-40.83,49.87-50.15,78.68-55.38,3.66-.66,7.18-1.26,10.46-1.86,11-2,22.12-6.12,32.15-10.79,7.68,23.28,33.92,32.19,46.31,53,5.11,8.58,20,21.51,29.46,29.22,4.78,3.92,8.16,6.49,8.16,6.49.48,0,17.92-16.18,28.44-26l7.83-7.31a90.71,90.71,0,0,0,51.7-55.4c10,4.67,21.14,8.8,32.09,10.78,2.41.41,5,.88,7.64,1.34C410.76,349.52,451.62,358.08,463.24,400.27Z" class="svgShape color346576-3 selectable"></path><path fill="#366d81" d="M308 309.39 342 332.25l18.88 80.14-67.19-19.67L254 420.94 289 385.87S314.45 364.14 308 309.39ZM203.36 310.49 167 333.63l-20 78.76 67.19-19.67 33.86 24 5.91 4.19-35.17-35.07S196.92 365.24 203.36 310.49Z" class="svgShape color366d81-4 selectable"></path><path fill="#fba56c" d="M339.78 168.13c-.18.17-.34.34-.5.51h0a20.13 20.13 0 0 0-7 12.89c-1.16 9.52-1.58 19.4 1.24 28.22.94 2.95.6 6.24 4.38 6.2 2.39 0 4-2.24 5.29-4a32.93 32.93 0 0 0 6-15.66c.78-7.67 4.45-14.24 4.61-21.62S345.1 163.11 339.78 168.13ZM169.43 168.13c.18.17.34.34.5.51h0a20.13 20.13 0 0 1 7 12.89c1.16 9.52 1.58 19.4-1.24 28.22-.94 2.95-.6 6.24-4.38 6.2-2.39 0-4-2.24-5.29-4a32.92 32.92 0 0 1-6-15.66c-.79-7.67-4.46-14.24-4.62-21.62S164.11 163.11 169.43 168.13Z" class="svgShape colorfba56c-5 selectable"></path><path fill="#fba56c" d="M336.5,110.23c-21.4-41.49-58.14-48.07-81.36-47.58-23.21-.49-60,6.09-81.35,47.58,0,0-4.93,43.76-1.18,88.31,4.65,55.22,6,51.66,22.67,68.75,10.22,10.45,21.73,18,24.83,21.14,8.48,8.5,21.38,16.19,35.26,15.43,13.88.76,26.78-6.7,35.26-15.2,3.1-3.1,11-8.72,23.83-20.42,12.39-11.3,15.55-9.17,23-68.29C343,155.59,336.5,110.23,336.5,110.23Z" class="svgShape colorfba56c-6 selectable"></path><path fill="#366d81" d="M287.88,387,282.42,395l-7.74,11.25v101.6q-9.26.69-18.68.69-5.12,0-10.19-.21V414.46h0Z" class="svgShape color366d81-7 selectable"></path><path fill="#e6e7e8" d="M259.51,427.34a5.54,5.54,0,1,0,5.54,5.54A5.54,5.54,0,0,0,259.51,427.34Z" class="svgShape colore6e7e8-8 selectable"></path><path fill="#3b4346" d="M332.59,100s-15.21-46.83-78.1-50.27C191.6,53.19,176.39,100,176.39,100c-15.89,13.78-4.89,99.56-4.89,99.56s-3.5,22.76-.87,63,21.89,64.79,21.89,64.79l1.75-20.14c5.25,26.27,31.52,44.65,31.52,44.65L224,331.78c7,15.51,26.28,22.77,30.62,24.23v.08l.12,0,.12,0V356c4.34-1.46,23.65-8.72,30.63-24.23l-1.75,20.14s26.27-18.38,31.52-44.65l1.75,20.14s19.26-24.52,21.89-64.79-.88-63-.88-63S348.48,113.8,332.59,100ZM334.41,200s-18.7,44.23-29.21,59.12c0,0-13.54,20.15-35.49,27.9a5.81,5.81,0,0,1-7.7-5.5v-2a1.18,1.18,0,0,0-1.18-1.18H248.38a1.18,1.18,0,0,0-1.18,1.18v2.68a5.82,5.82,0,0,1-7.81,5.47c-19.24-7-32.29-27.18-32.29-27.18C196.59,245.51,175,198.65,175,198.65c-2.76-62,16.63-80.72,16.63-80.72,28.34,21.35,62.89,21.35,62.89,21.35s34.56,0,62.89-21.35C317.38,117.93,337.18,138,334.41,200Z" class="svgShape color3b4346-9 selectable"></path><path fill="#434d51" d="M322.19 296.24a1.21 1.21 0 0 1-.37-.07 1 1 0 0 1-.56-1.3 147.48 147.48 0 0 0 10-64.65 1 1 0 0 1 .93-1.07 1 1 0 0 1 1.06.92 149.32 149.32 0 0 1-10.12 65.53A1 1 0 0 1 322.19 296.24ZM187.89 294.92a1 1 0 0 1-.95-.69 134.06 134.06 0 0 1-5.34-60.67 1 1 0 0 1 2 .28 132 132 0 0 0 5.26 59.76 1 1 0 0 1-.64 1.27A1.06 1.06 0 0 1 187.89 294.92ZM215.25 325.76a1 1 0 0 1-.89-.54A110.4 110.4 0 0 1 201.74 275a1 1 0 0 1 1-1h0a1 1 0 0 1 1 1 108.44 108.44 0 0 0 12.39 49.33 1 1 0 0 1-.42 1.35A.93.93 0 0 1 215.25 325.76ZM295.72 317.34a1 1 0 0 1-.58-.18 1 1 0 0 1-.24-1.4 68.22 68.22 0 0 0 12-44.2 1 1 0 0 1 2-.16 70.34 70.34 0 0 1-12.39 45.52A1 1 0 0 1 295.72 317.34ZM242.93 326.53a1 1 0 0 1-.74-.33c-10.17-11-17.58-20.07-20.3-36.4a1 1 0 1 1 2-.33c2.63 15.78 9.87 24.62 19.8 35.38a1 1 0 0 1-.73 1.68ZM273.62 325.51a.93.93 0 0 1-.48-.12 1 1 0 0 1-.4-1.35 130.14 130.14 0 0 0 13-34.85 1 1 0 0 1 2 .42A132 132 0 0 1 274.5 325 1 1 0 0 1 273.62 325.51ZM263.64 123.1a85.12 85.12 0 0 1-46.73-14 1 1 0 0 1-.28-1.38 1 1 0 0 1 1.38-.29 82.47 82.47 0 0 0 97.77-4.93 1 1 0 0 1 1.4.14A1 1 0 0 1 317 104a85 85 0 0 1-49.23 19C266.42 123.06 265 123.1 263.64 123.1ZM335.05 143.45a1 1 0 0 1-1-.87 108.47 108.47 0 0 0-11-35.47 1 1 0 0 1 .44-1.35 1 1 0 0 1 1.34.44 110.52 110.52 0 0 1 11.22 36.13 1 1 0 0 1-.87 1.12ZM262.48 103.89h-.87c-16.27-.17-31-5.47-41.42-14.92a1 1 0 0 1 1.34-1.48c10.08 9.12 24.32 14.23 40.1 14.4 12.86.13 26.8-2.88 42.62-9.25a1 1 0 1 1 .74 1.86C289.28 100.81 275.36 103.89 262.48 103.89ZM274.41 81.61a74.81 74.81 0 0 1-42.51-13.1A1 1 0 0 1 233 66.87a73 73 0 0 0 64.46 8.92 1 1 0 1 1 .65 1.89A72.66 72.66 0 0 1 274.41 81.61ZM175.29 133.81a1 1 0 0 1-1-1 42.72 42.72 0 0 1 10.54-28.3 1 1 0 0 1 1.41-.09 1 1 0 0 1 .09 1.41 40.73 40.73 0 0 0-10 27 1 1 0 0 1-1 1ZM256.68 321.87a1 1 0 0 1-1-.74 83.08 83.08 0 0 1-2.74-25.5 1 1 0 1 1 2 .09 81.6 81.6 0 0 0 2.68 24.89 1 1 0 0 1-.71 1.22A.78.78 0 0 1 256.68 321.87Z" class="svgShape color434d51-10 selectable"></path><path fill="#f39965" d="M262,256.07a9.23,9.23,0,0,0-6,1.34,4.1,4.1,0,0,1-4.27,0,9.27,9.27,0,0,0-6-1.34c-5.08.62-17.89,6.53-24.18,9,0,0,15.89,10.11,18.4,10.8a43.56,43.56,0,0,0,13.5,1.86,51,51,0,0,0,14.37-1.86c2.51-.69,18.39-10.8,18.39-10.8C279.93,262.6,267.11,256.69,262,256.07Z" class="svgShape colorf39965-11 selectable"></path><path fill="#cc7752" d="M223.52,265.43c7.5.06,14.95,1,22.43.59,5.07-.11,9.89.53,14.93,0,4.36-.32,10.57-.43,15-.53,2.5,0,5,0,7.5,0-2.48.24-5,.41-7.46.63-3.73.26-11.2.82-14.92,1.12-4.93.63-10.09,0-15,0-7.49.22-15-1-22.47-1.78Z" class="svgShape colorcc7752-12 selectable"></path><path fill="#434d51" d="M266.38,232.23c-6.07-1.66-9.82,1.55-11.77,4.15a10.49,10.49,0,0,0-11.78-4.15c-9.65,2.63-35.67,31.28-59.64,26.6,0,0,14.7,16.28,43.35,8.89,16.22-4.18,24.78-7.4,28.1-14.39,3.43,7,12.18,10.21,28.4,14.39,28.65,7.39,43-8.89,43-8.89C302.05,263.51,276,234.86,266.38,232.23Z" class="svgShape color434d51-13 selectable"></path><path fill="#f39965" d="M320.67,166c-5.58-11.39-26.45-7.46-35.61-4.32-6.13,2.11-11.8,4.61-13.62,7.12,0,0-7.68,9.58-8.62,14.13-.69,3.31-3.19,18.28-1.51,29.33,1.34,12.45-4.22,13.64-4.91,14a4.1,4.1,0,0,1-3.66,0c-7.5-3-4.82-16-4.82-16,1.15-10.8-1.11-24.3-1.76-27.42-.94-4.55-8.62-14.13-8.62-14.13-32.26-20.7-47.33-4.67-49-2.7,0,.06,0,.14.1.12,28.62-4.93,26.6,11.59,26.6,11.59s9.95,3,17.74,5.45c4.6,1.47,8.64,2.74,8.9,3.18,3.14,5.33-3.09,27.36-3.09,27.36s0,.06,0,.15c-1,.83-5.8,5.3-4.76,11.19,1.15,6.53,3.59,6.15,6.31,6.34s6.18-.57,8.48,0,2.72,2.54,5.77,2.69,3.46-2.11,5.76-2.69,5.77.19,8.49,0,5.16.19,6.31-6.34-4.94-11.34-4.94-11.34-4.09-21.25-3.09-27.36c.28-1.71,9.13-3.18,9.13-3.18S294,171.81,295,169.77c4.07-7.72,23.11-3.76,25.44-3.51C320.6,166.27,320.73,166.15,320.67,166Z" class="svgShape colorf39965-14 selectable"></path><path fill="#cc7752" d="M262.5 230a1.42 1.42 0 0 1-.69-2.27 3.58 3.58 0 0 1 1.76-1.17c2.13-.64 5-1 5.32 1C269.18 229.22 267.12 231.33 262.5 230ZM246.52 230a1.41 1.41 0 0 0 .7-2.27 3.62 3.62 0 0 0-1.76-1.17c-2.13-.64-5-1-5.32 1C239.85 229.22 241.91 231.33 246.52 230Z" class="svgShape colorcc7752-15 selectable"></path><path fill="#f1f2f2" d="M199.86,181.84a20,20,0,0,0,6.89,4.75h0a20.64,20.64,0,0,0,9.66,1.61c10.52-.73,16.56-4.9,16.56-4.9l0,0a20.4,20.4,0,0,0-9.77-8.9,17.58,17.58,0,0,0-10-.88,9,9,0,0,0-1.67.22A16.94,16.94,0,0,0,199.86,181.84Z" class="svgShape colorf1f2f2-16 selectable"></path><path fill="#4c5f6a" d="M209.08,179.19a8.18,8.18,0,1,0,15-4.47,23.1,23.1,0,0,0-11.29-.92,18.53,18.53,0,0,0-1.9.24A8.17,8.17,0,0,0,209.08,179.19Z" class="svgShape color4c5f6a-17 selectable"></path><path fill="#3b4346" d="M217.25,175.29a3.9,3.9,0,1,1-3.89,3.89A3.89,3.89,0,0,1,217.25,175.29Z" class="svgShape color3b4346-18 selectable"></path><path fill="#e89064" d="M233,183.3s-2.61-14.69-17.86-13.62c-9,.64-14.92,7.08-15.26,12.16C199.86,181.84,217.25,162.85,233,183.3Z" class="svgShape colore89064-19 selectable"></path><path fill="#3b4346" d="M202.91,181.78s.05-.93,4.56-4.74,12.33-2.92,15.59-1.6,9.51,7.45,9.9,7.84c-.26-.54-6.34-12.41-19.76-10a17.55,17.55,0,0,0-13.34,8.58,20,20,0,0,0,6.89,4.75A14.07,14.07,0,0,1,202.91,181.78Z" class="svgShape color3b4346-20 selectable"></path><circle cx="218.72" cy="177.96" r="1.81" fill="#ffffff" class="svgShape colorffffff-21 selectable"></circle><path fill="#f1f2f2" d="M309.35,181.84a20,20,0,0,1-6.89,4.75h0a20.68,20.68,0,0,1-9.67,1.61c-10.52-.73-16.56-4.9-16.56-4.9l0,0a20.74,20.74,0,0,1,9.84-8.86,17.16,17.16,0,0,1,9.88-1,16.69,16.69,0,0,1,1.74.27A17,17,0,0,1,309.35,181.84Z" class="svgShape colorf1f2f2-22 selectable"></path><path fill="#4c5f6a" d="M300.13,179.19a8.18,8.18,0,1,1-15-4.47,23.1,23.1,0,0,1,11.29-.92,18.53,18.53,0,0,1,1.9.24A8.17,8.17,0,0,1,300.13,179.19Z" class="svgShape color4c5f6a-23 selectable"></path><path fill="#3b4346" d="M292,175.29a3.9,3.9,0,1,0,3.89,3.89A3.9,3.9,0,0,0,292,175.29Z" class="svgShape color3b4346-24 selectable"></path><path fill="#e89064" d="M276.23,183.3s2.61-14.69,17.86-13.62c9,.64,14.93,7.08,15.26,12.16C309.35,181.84,292,162.85,276.23,183.3Z" class="svgShape colore89064-25 selectable"></path><path fill="#3b4346" d="M306.3,181.78s-.05-.93-4.56-4.74-12.32-2.92-15.59-1.6-9.51,7.45-9.9,7.84c.26-.54,6.34-12.41,19.76-10a17.53,17.53,0,0,1,13.34,8.58,20,20,0,0,1-6.89,4.75A14.07,14.07,0,0,0,306.3,181.78Z" class="svgShape color3b4346-26 selectable"></path><circle cx="290.49" cy="177.96" r="1.81" fill="#ffffff" class="svgShape colorffffff-27 selectable"></circle><path fill="#434d51" d="M320.89 161.48c-1.06-1.89-7.58-7.12-11.14-9.89a5.79 5.79 0 0 0-5.11-1c-5.76 1.57-19 5.14-25.83 6.6-6.18 1.32-8.35 6.55-9.09 9.58a1.76 1.76 0 0 0 1.75 2.2 39.74 39.74 0 0 0 13-3.16s14.63-4.62 22.1-4.62c5.71 0 11.48 3.47 13.88 5.1a.86.86 0 0 0 1.34-.69A7.85 7.85 0 0 0 320.89 161.48ZM239.49 166.75c-.74-3-2.91-8.26-9.09-9.58-6.8-1.46-20.06-5-25.83-6.6a5.79 5.79 0 0 0-5.11 1c-3.56 2.77-10.08 8-11.14 9.89a8 8 0 0 0-.92 4.1.86.86 0 0 0 1.34.69c2.4-1.63 8.17-5.1 13.88-5.1 7.23 0 21.14 4.32 22 4.61l.09 0a39.59 39.59 0 0 0 13 3.14A1.76 1.76 0 0 0 239.49 166.75Z" class="svgShape color434d51-28 selectable"></path><path fill="#f39965" d="M261.05,210.39c-.09-.83-.18-1.35-.18-1.35Z" class="svgShape colorf39965-29 selectable"></path><path fill="#3b4346" d="M334,163.44c-33.49-6.17-63.48-.15-67.87,1.84-3,1.37-7.77,1.61-10.48,1.62l0,0-1,0-1.05,0,0,0c-2.71,0-7.43-.25-10.48-1.62-4.39-2-34.38-8-67.87-1.84a2.49,2.49,0,0,0-2,2.45v7.88a2.51,2.51,0,0,0,1.42,2.24c1.54.76,3.92,2.25,4.95,4.61,1.59,3.61.58,26,22.72,31.4s32.27-3.62,38.06-11.58S246,179.6,252.62,178.3a11.76,11.76,0,0,1,2-.22,12,12,0,0,1,2,.22c6.65,1.3,6.51,14.19,12.3,22.14S284.82,217.38,307,212s21.13-27.79,22.72-31.4c1-2.36,3.41-3.85,4.95-4.61a2.51,2.51,0,0,0,1.42-2.24v-7.88A2.49,2.49,0,0,0,334,163.44Zm-93.38,25.84c-3.89,14.3-11.16,21.48-32.35,20-20-1.41-24.57-22.49-22.62-34.43S214.4,165,214.4,165s15.41,0,21.24,3.06S244.52,175,240.64,189.28Zm60.28,20c-21.19,1.49-28.46-5.69-32.35-20s-.83-18.19,5-21.24S294.81,165,294.81,165s26.8-2.08,28.73,9.86S320.91,207.86,300.92,209.27Z" class="svgShape color3b4346-30 selectable"></path><path fill="#4d585b" d="M308.35 261.91c-9.5 0-16.09-3.57-21.37-7.22a105.75 105.75 0 0 1-8.76-7c-2.15-1.87-4.37-3.79-6.67-5.53a15 15 0 0 0-6.41-3.25c-2.08-.33-4.82.29-6 2.46a.49.49 0 0 1-.67.2.49.49 0 0 1-.21-.67c1.39-2.6 4.61-3.36 7-3a16 16 0 0 1 6.87 3.44c2.32 1.76 4.56 3.7 6.72 5.57a103.32 103.32 0 0 0 8.67 7c6 4.18 13.85 8.25 25.92 6.7a.51.51 0 0 1 .56.43.5.5 0 0 1-.44.56A40.43 40.43 0 0 1 308.35 261.91ZM280.63 257.26a.54.54 0 0 1-.21-.05 31.2 31.2 0 0 1-6.28-4.21l-.2-.16a27.3 27.3 0 0 0-6.34-4.1 9.3 9.3 0 0 0-7.11-.26.5.5 0 0 1-.66-.26.5.5 0 0 1 .26-.66 10.12 10.12 0 0 1 7.89.26 28 28 0 0 1 6.58 4.24l.2.16a30.73 30.73 0 0 0 6.07 4.08.5.5 0 0 1-.2 1ZM290.59 264.45a49.43 49.43 0 0 1-27.25-8.22.5.5 0 0 1 .56-.84 48.34 48.34 0 0 0 30.19 7.93.5.5 0 0 1 .07 1C293 264.4 291.78 264.45 290.59 264.45ZM200.65 261.91a40.69 40.69 0 0 1-5.25-.35A.5.5 0 0 1 195 261a.51.51 0 0 1 .56-.43c12.07 1.54 19.87-2.52 25.92-6.7a105 105 0 0 0 8.67-7c2.16-1.87 4.4-3.81 6.72-5.57a15.91 15.91 0 0 1 6.86-3.44c2.41-.39 5.63.38 7 3a.5.5 0 0 1-.21.67.51.51 0 0 1-.68-.2c-1.15-2.17-3.9-2.8-6-2.46a15.07 15.07 0 0 0-6.42 3.25c-2.29 1.74-4.52 3.66-6.67 5.53a104 104 0 0 1-8.75 7C216.74 258.34 210.15 261.91 200.65 261.91ZM228.37 257.26a.49.49 0 0 1-.45-.3.49.49 0 0 1 .24-.66 30.8 30.8 0 0 0 6.08-4.08l.2-.16a27.83 27.83 0 0 1 6.58-4.24 10.12 10.12 0 0 1 7.89-.26.5.5 0 1 1-.4.92 9.3 9.3 0 0 0-7.11.26 27.3 27.3 0 0 0-6.34 4.1l-.2.16a31.48 31.48 0 0 1-6.28 4.21A.54.54 0 0 1 228.37 257.26ZM218.4 264.45c-1.19 0-2.37-.05-3.56-.13a.49.49 0 0 1-.46-.54.48.48 0 0 1 .53-.46 48.31 48.31 0 0 0 30.19-7.93.5.5 0 0 1 .55.84A49.41 49.41 0 0 1 218.4 264.45Z" class="svgShape color4d585b-31 selectable"></path></svg></g></svg>