<!DOCTYPE svg PUBLIC "-//W3C//DTD SVG 1.1//EN" "http://www.w3.org/Graphics/SVG/1.1/DTD/svg11.dtd">
<!-- Uploaded to: SVG Repo, www.svgrepo.com, Transformed by: SVG Repo Mixer Tools -->
<svg version="1.1" id="Layer_1" xmlns="http://www.w3.org/2000/svg" xmlns:xlink="http://www.w3.org/1999/xlink" viewBox="0 0 512 512" xml:space="preserve" width="800px" height="800px" fill="#000000">
<g id="SVGRepo_bgCarrier" stroke-width="0"/>
<g id="SVGRepo_tracerCarrier" stroke-linecap="round" stroke-linejoin="round"/>
<g id="SVGRepo_iconCarrier"> <circle style="fill:#cfeaf7;" cx="256" cy="256" r="256"/> <path style="fill:#cfeaf7;" d="M512,256c0-21.733-2.719-42.832-7.816-62.981l-90.015-90.015L255.714,251.116L101.279,388.31 l121.554,121.554C233.693,511.269,244.76,512,256,512C397.384,512,512,397.384,512,256z"/> <rect x="101.279" y="132.31" style="fill:#324A5E;" width="312.889" height="256"/> <rect x="255.431" y="132.31" style="fill:#2B3B4E;" width="158.737" height="256"/> <rect x="215.057" y="217.643" style="fill:#31BAFD;" width="170.667" height="142.222"/> <rect x="255.431" y="217.643" style="fill:#2B9ED8;" width="130.293" height="142.222"/> <g> <rect x="209.024" y="352.97" style="fill:#ec2709;" width="182.734" height="10.343"/> <rect x="255.431" y="352.97" style="fill:#ec2709;" width="136.326" height="10.343"/> </g> <rect x="129.724" y="217.643" style="fill:#31BAFD;" width="56.889" height="170.667"/> <rect x="101.279" y="103.003" style="fill:#ea3810;" width="312.889" height="55.165"/> <rect x="255.431" y="103.003" style="fill:#ec2709;" width="158.737" height="55.165"/> </g>
</svg>